<?xml version="1.0" encoding="utf-8"?>
<!-- Generator: Adobe Illustrator 24.3.0, SVG Export Plug-In . SVG Version: 6.00 Build 0)  -->
<svg version="1.1" id="katman_1" xmlns="http://www.w3.org/2000/svg" xmlns:xlink="http://www.w3.org/1999/xlink" x="0px" y="0px"
	 viewBox="0 0 100 35" style="enable-background:new 0 0 100 35;" xml:space="preserve">
<style type="text/css">
	.st0{fill:#0EC8EB;}
	.st1{fill:#4E4E4E;}
</style>
<path class="st0" d="M18.2,11.2C17,10.3,14.9,9.3,11.6,9V8.8c0-0.1,0.1-0.1,0.1-0.1l0.4-0.1c0.7-0.1,1.1-0.9,1-1.6
	c-0.1-0.7-0.9-1.1-1.6-1l-0.4,0.1C9.9,6.4,9.1,7.5,9.1,8.8V9c-3.4,0.1-5.5,1.2-6.7,2.2c-1,0.7-1.6,2.2-1.4,3.7l0.1,1.3
	c0.1,1,0.5,1.9,1.3,2.6l0.4,4.8c0.1,1.9,1.2,3.7,2.8,4.8l1.4,1c1,0.7,2.2,1,3.3,1s2.3-0.4,3.3-1l1.4-1c1.6-1.1,2.6-2.8,2.8-4.8
	l0.4-4.8c0.7-0.7,1.1-1.6,1.3-2.6l0.1-1.3C19.8,13.3,19.3,12,18.2,11.2z M3.9,13.3c1.1-0.8,3.1-1.7,6.4-1.7s5.2,1,6.4,1.7
	c0.4,0.3,0.4,1,0.4,1.3l-0.1,1.3c-0.1,0.5-0.3,1-0.7,1.3c-0.5,0.4-1.2,0.5-1.9,0.4c-1.4-0.3-2.8-0.4-4-0.4s-2.5,0.1-4,0.4
	c-0.7,0.1-1.3,0-1.9-0.4c-0.4-0.3-0.7-0.7-0.7-1.3l-0.1-1.3C3.5,14.3,3.5,13.6,3.9,13.3z M13.5,26.3l-1.4,1c-1,0.7-2.5,0.7-3.6,0
	l-1.4-1c-1-0.7-1.6-1.7-1.7-2.8L5,20.2c0.6,0.1,1.2,0.1,1.7,0c1.3-0.2,2.4-0.4,3.4-0.4s2.2,0.1,3.4,0.4c0.3,0.1,0.7,0.1,1,0.1
	c0.2,0,0.5,0,0.7-0.1l-0.3,3.2C15.1,24.6,14.5,25.6,13.5,26.3z"/>
<g>
	<g>
		<path class="st1" d="M22.2,23.9l4.9-10.4h2.2l4.9,10.4h-2.7l-1.2-2.9l1.1,0.8h-6.1l1-0.8l-1.2,2.9H22.2z M28.2,16.3l-1.7,4.1
			L26,19.7h4.3l-0.4,0.7L28.2,16.3L28.2,16.3z"/>
		<path class="st1" d="M34.8,23.9V13.5h5c0.8,0,1.4,0.1,2,0.4c0.6,0.3,1,0.7,1.3,1.2c0.3,0.5,0.4,1.1,0.4,1.8c0,0.7-0.1,1.3-0.4,1.8
			c-0.3,0.5-0.7,0.9-1.3,1.2c-0.6,0.3-1.2,0.4-2,0.4h-2.3v3.6H34.8z M37.5,18.3h1.8c0.5,0,0.9-0.1,1.2-0.3c0.3-0.2,0.4-0.6,0.4-1
			s-0.1-0.8-0.4-1c-0.3-0.2-0.7-0.3-1.2-0.3h-1.8V18.3z"/>
		<path class="st1" d="M44.8,23.9V13.5h5c0.8,0,1.4,0.1,2,0.4c0.6,0.3,1,0.7,1.3,1.2c0.3,0.5,0.4,1.1,0.4,1.8c0,0.7-0.1,1.3-0.4,1.8
			c-0.3,0.5-0.7,0.9-1.3,1.2c-0.6,0.3-1.2,0.4-2,0.4h-2.3v3.6H44.8z M47.5,18.3h1.8c0.5,0,0.9-0.1,1.2-0.3c0.3-0.2,0.4-0.6,0.4-1
			s-0.1-0.8-0.4-1c-0.3-0.2-0.7-0.3-1.2-0.3h-1.8V18.3z"/>
		<path class="st1" d="M54.8,23.9V13.5h2.7v8.2h4.6v2.3H54.8z"/>
		<path class="st1" d="M68.4,24.1c-0.8,0-1.5-0.1-2.2-0.4c-0.7-0.3-1.2-0.6-1.7-1.1c-0.5-0.5-0.8-1-1.1-1.7
			c-0.3-0.7-0.4-1.4-0.4-2.2c0-0.8,0.1-1.5,0.4-2.2c0.3-0.7,0.6-1.2,1.1-1.7c0.5-0.5,1-0.8,1.7-1.1s1.4-0.4,2.2-0.4s1.5,0.1,2.2,0.4
			c0.7,0.3,1.2,0.6,1.7,1.1s0.8,1,1.1,1.7c0.3,0.7,0.4,1.4,0.4,2.2c0,0.8-0.1,1.6-0.4,2.2c-0.3,0.7-0.6,1.2-1.1,1.7
			c-0.5,0.5-1,0.8-1.7,1.1C70,24,69.2,24.1,68.4,24.1z M68.5,21.8c0.5,0,1-0.1,1.3-0.4c0.4-0.2,0.6-0.6,0.8-1.1
			c0.2-0.5,0.3-1,0.3-1.7c0-0.7-0.1-1.2-0.3-1.7c-0.2-0.5-0.5-0.8-0.9-1.1c-0.4-0.2-0.8-0.4-1.3-0.4s-1,0.1-1.3,0.4
			s-0.7,0.6-0.9,1.1c-0.2,0.5-0.3,1-0.3,1.7c0,0.7,0.1,1.2,0.3,1.7s0.5,0.8,0.9,1.1C67.5,21.7,67.9,21.8,68.5,21.8z"/>
		<path class="st1" d="M80.4,24.1c-0.8,0-1.5-0.1-2.2-0.4c-0.7-0.3-1.2-0.6-1.7-1.1c-0.5-0.5-0.8-1-1.1-1.7
			c-0.3-0.7-0.4-1.4-0.4-2.2c0-0.8,0.1-1.5,0.4-2.2c0.3-0.7,0.6-1.2,1.1-1.7c0.5-0.5,1-0.8,1.7-1.1s1.4-0.4,2.2-0.4s1.5,0.1,2.2,0.4
			c0.7,0.3,1.2,0.6,1.7,1.1s0.8,1,1.1,1.7c0.3,0.7,0.4,1.4,0.4,2.2c0,0.8-0.1,1.6-0.4,2.2c-0.3,0.7-0.6,1.2-1.1,1.7
			c-0.5,0.5-1,0.8-1.7,1.1C81.9,24,81.2,24.1,80.4,24.1z M80.4,21.8c0.5,0,1-0.1,1.3-0.4c0.4-0.2,0.6-0.6,0.8-1.1
			c0.2-0.5,0.3-1,0.3-1.7c0-0.7-0.1-1.2-0.3-1.7c-0.2-0.5-0.5-0.8-0.9-1.1c-0.4-0.2-0.8-0.4-1.3-0.4s-1,0.1-1.3,0.4
			s-0.7,0.6-0.9,1.1c-0.2,0.5-0.3,1-0.3,1.7c0,0.7,0.1,1.2,0.3,1.7s0.5,0.8,0.9,1.1C79.4,21.7,79.9,21.8,80.4,21.8z"/>
		<path class="st1" d="M87.3,23.9V13.5h2.3l3.6,6.5h-0.5l3.6-6.5h2.2v10.4H96v-6.2h0.3l-2.7,4.6h-1.5l-2.7-4.7h0.4v6.2H87.3z"/>
	</g>
</g>
</svg>
